<svg width="32" height="32" viewBox="0 0 32 32" fill="none" xmlns="http://www.w3.org/2000/svg">
<g clip-path="url(#clip0)">
<path d="M15.8349 -7.94664e-05C7.11389 0.058536 0.0585403 7.11389 -7.66977e-05 15.8349C0.0711806 24.5568 7.12878 31.6074 15.8508 31.6699C24.5641 31.5991 31.6078 24.5483 31.6699 15.8349C31.6059 7.11614 24.5537 0.0639141 15.8349 -7.94664e-05V-7.94664e-05ZM6.76814 15.8499C6.7744 15.4463 6.94868 15.0636 7.24902 14.794L13.1946 8.86335C13.4485 8.62818 13.7804 8.49545 14.1264 8.49082C14.4716 8.48406 14.8049 8.61712 15.0505 8.85976C15.2961 9.10241 15.4333 9.43403 15.4307 9.77928C15.4284 10.1361 15.2831 10.4772 15.0273 10.7261L12.8388 12.8688L10.7277 14.654L14.4689 14.5139L23.5657 14.5139C23.9225 14.4989 24.2691 14.635 24.5203 14.8889C24.7715 15.1428 24.9039 15.4908 24.885 15.8474C24.9013 16.2033 24.768 16.5498 24.5175 16.8031C24.2669 17.0564 23.9218 17.1934 23.5657 17.1809L14.4689 17.1809L10.7277 17.0259L12.8388 18.7952L15.0273 20.9688C15.2768 21.2158 15.4213 21.5496 15.4307 21.9006C15.4333 22.2458 15.2961 22.5774 15.0505 22.8201C14.8049 23.0627 14.4716 23.1958 14.1264 23.189C13.781 23.1971 13.4463 23.069 13.1946 22.8323L7.24902 16.8867C6.94609 16.6271 6.77065 16.2489 6.76814 15.8499Z" fill="#292D36"/>
</g>
<defs>
<clipPath id="clip0">
<rect width="31.67" height="31.67" fill="white"/>
</clipPath>
</defs>
</svg>
