<svg width="32" height="32" viewBox="0 0 32 32" fill="none" xmlns="http://www.w3.org/2000/svg">
<g clip-path="url(#clip0)">
<path d="M15.835 31.67C24.556 31.6114 31.6114 24.556 31.67 15.835C31.5987 7.11309 24.5411 0.0625404 15.8192 0C7.10582 0.0708101 0.0620924 7.12158 0 15.835C0.0639928 24.5538 7.11622 31.606 15.835 31.67V31.67ZM24.9018 15.82C24.8955 16.2236 24.7212 16.6063 24.4209 16.8759L18.4753 22.8066C18.2215 23.0417 17.8895 23.1745 17.5435 23.1791C17.1983 23.1859 16.865 23.0528 16.6194 22.8102C16.3738 22.5675 16.2367 22.2359 16.2392 21.8906C16.2416 21.5338 16.3869 21.1928 16.6426 20.9439L18.8311 18.8011L20.9422 17.016L17.201 17.156H8.10419C7.74739 17.171 7.40079 17.0349 7.14962 16.781C6.89845 16.5272 6.76602 16.1791 6.78488 15.8225C6.76861 15.4666 6.90188 15.1201 7.15246 14.8668C7.40305 14.6135 7.74812 14.4765 8.10419 14.489H17.201L20.9422 14.644L18.8311 12.8747L16.6426 10.7011C16.3931 10.4541 16.2486 10.1203 16.2392 9.76936C16.2367 9.42411 16.3738 9.09248 16.6194 8.84983C16.865 8.60719 17.1983 8.47413 17.5435 8.48089C17.8889 8.47279 18.2236 8.60092 18.4753 8.83759L24.4209 14.7832C24.7238 15.0428 24.8993 15.4211 24.9018 15.82Z" fill="#292D36"/>
</g>
<defs>
<clipPath id="clip0">
<rect width="31.67" height="31.67" fill="white"/>
</clipPath>
</defs>
</svg>
